<svg xmlns="http://www.w3.org/2000/svg" viewBox="320 95 388 372" role="img" aria-label="wdpkr woodpecker">
<path fill="#E5E9F0" opacity="1.000000" stroke="none" 
	d="
M637.008911,406.002014 
	C642.463379,417.043243 647.909790,428.088531 653.376831,439.123535 
	C655.280396,442.965851 657.414124,446.708282 658.781311,451.687317 
	C650.791687,451.200745 644.216064,448.391785 638.205383,444.296967 
	C631.372192,439.641846 625.909302,433.615326 621.824158,426.371094 
	C612.246277,409.386780 603.413025,392.008636 595.037292,374.416046 
	C592.593872,369.283783 589.463257,366.845642 583.888000,366.303375 
	C577.619568,365.693665 571.407654,364.370453 565.216370,363.131683 
	C556.523865,361.392426 554.675415,362.018097 548.569214,369.909912 
	C553.540649,373.106567 557.257629,377.355530 558.744446,383.316895 
	C559.192627,385.113708 561.393127,385.770172 562.986206,386.615082 
	C577.899353,394.524017 591.608582,404.283722 605.344177,414.009766 
	C607.982849,415.878143 610.165344,418.074280 611.567139,421.023438 
	C618.961365,436.579315 629.638062,448.912170 645.808594,455.847870 
	C646.058838,455.955200 646.186279,456.348877 646.381714,456.623932 
	C645.733459,458.343506 644.213989,457.880920 642.994019,457.885834 
	C632.836304,457.926758 622.677490,457.837128 612.520874,457.951477 
	C609.282288,457.987915 606.838562,456.916260 604.566528,454.611420 
	C598.953796,448.917511 593.185608,443.374390 587.405945,437.848022 
	C577.934509,428.791687 566.428650,423.769745 553.669922,421.715210 
	C546.503479,420.561249 539.830383,422.742279 533.764404,426.666962 
	C532.399231,427.550201 531.107300,428.546509 529.427185,429.743286 
	C527.855896,425.347992 531.132568,423.068787 532.955933,419.343658 
	C515.946167,419.148926 501.303528,425.886139 486.431061,431.730682 
	C505.974152,411.797638 529.863037,408.341125 557.404114,413.847443 
	C545.710938,405.746460 534.876160,399.002014 523.532471,393.409424 
	C521.498230,395.482819 524.119629,397.404785 522.402771,399.320038 
	C517.628357,399.135315 515.328979,395.737061 514.247314,391.653961 
	C513.421082,388.535126 511.649323,386.878326 508.988647,385.567505 
	C480.789795,371.675079 453.520111,375.025360 426.924316,390.028381 
	C421.109650,393.308502 415.781433,397.330078 410.884613,401.896698 
	C408.902924,403.744812 406.709106,405.991455 404.044525,403.417206 
	C401.291718,400.757751 403.698669,398.519196 405.493744,396.603180 
	C419.537140,381.614014 436.526855,371.621033 456.489288,366.706879 
	C458.371002,366.243652 460.461060,366.261536 461.962708,364.618408 
	C461.048737,362.366486 458.830719,362.153778 457.089355,361.452576 
	C435.270660,352.666931 413.084045,344.999908 389.686707,341.717010 
	C374.982788,339.653839 360.167236,339.211182 345.352386,340.954773 
	C342.873108,341.246582 340.371155,341.346313 337.879364,341.530609 
	C335.597412,341.699371 333.886688,340.842896 333.351440,338.533478 
	C332.734314,335.870789 334.352753,334.380829 336.632935,333.770447 
	C339.840088,332.911926 343.104279,332.196045 346.386444,331.699463 
	C366.599274,328.641266 386.823242,328.611755 407.064392,331.539520 
	C408.943573,331.811371 410.899841,332.712585 413.583801,331.488464 
	C411.300079,328.839600 409.157562,326.421021 407.087006,323.942322 
	C391.271240,305.008789 381.911072,283.396332 379.513977,258.730164 
	C378.899078,252.402618 378.697937,246.111557 378.695282,239.786865 
	C378.694122,237.060013 378.703064,233.883530 382.384583,233.879349 
	C385.980835,233.875259 386.197540,237.024551 386.247345,239.754501 
	C386.597961,258.975830 391.599304,276.854309 401.338501,293.458496 
	C414.121094,315.251221 432.478271,330.500153 455.622070,340.225403 
	C456.385223,340.546112 457.200806,340.750092 458.003479,340.965546 
	C458.471710,341.091187 458.962830,341.131592 460.150574,341.326141 
	C453.822998,327.411072 447.404053,313.776367 453.575256,298.499634 
	C456.117340,301.596802 455.525330,305.357758 456.094421,308.801361 
	C458.368988,322.564484 464.040375,334.513519 474.136414,344.194855 
	C479.592010,349.426361 485.558655,353.341614 493.816986,350.860229 
	C495.958344,350.216827 498.642303,350.155853 500.748291,350.839722 
	C508.041656,353.208069 512.415222,347.865936 518.106567,345.460114 
	C516.758118,342.676239 514.503357,341.775696 512.708557,340.396729 
	C485.525787,319.511108 469.353577,292.829071 469.824310,257.708496 
	C470.014038,243.552765 474.111664,230.166794 479.762207,217.242401 
	C481.627777,212.975250 483.406555,208.636444 483.657471,203.893311 
	C484.264648,192.415680 476.851044,182.245773 464.514679,177.440964 
	C457.907867,174.867706 450.894073,174.375992 443.992767,173.421326 
	C430.154144,171.506973 416.271667,169.911514 402.424896,168.052933 
	C400.071228,167.737000 396.910065,167.606125 396.912079,164.202347 
	C396.913879,161.187164 399.472412,159.996582 402.062134,159.691193 
	C411.310455,158.600555 420.576874,157.659500 429.841461,156.711304 
	C439.270142,155.746307 448.700806,154.795731 458.139587,153.937622 
	C460.583099,153.715485 461.980133,152.723785 462.869843,150.335007 
	C472.672424,124.016106 493.221161,114.321304 519.655518,113.916824 
	C526.980042,113.804741 534.296631,114.071129 541.614807,113.218109 
	C550.916077,112.133949 559.452820,109.279274 566.969604,103.598381 
	C567.623108,103.104515 568.341431,102.614883 569.800232,103.145706 
	C569.840759,112.305176 566.342590,120.190842 559.842285,127.540413 
	C566.700562,129.982773 572.179626,126.251549 578.090393,125.004539 
	C580.353027,129.369186 578.386841,133.375534 577.699829,137.284698 
	C576.290466,145.304321 571.982971,152.169479 568.106934,159.143539 
	C559.465027,174.692719 556.173279,190.807632 562.257141,208.091568 
	C562.513123,208.818985 562.424622,209.667648 562.572083,211.290085 
	C552.434753,208.282028 542.670044,208.506470 532.506042,211.103821 
	C536.162842,205.956009 539.262756,200.825836 541.478638,195.147079 
	C551.084106,170.530716 538.125427,145.706497 512.471680,139.843887 
	C498.147552,136.570435 482.122467,143.992020 475.581451,156.740082 
	C474.064789,159.695953 474.256775,161.471115 477.373047,163.149307 
	C484.411499,166.939667 491.422272,170.728210 498.766815,173.944550 
	C515.908447,181.451279 521.950989,195.412857 516.011536,213.178268 
	C514.111694,218.860947 512.283691,224.589081 509.979706,230.111557 
	C500.539978,252.737976 505.321838,273.476257 518.171082,293.118805 
	C528.932739,309.570129 543.329834,322.333221 559.600281,333.110718 
	C581.564026,347.659546 605.328186,358.391541 630.426453,366.214203 
	C634.633240,367.525360 637.568604,369.752563 639.953613,373.535858 
	C656.473206,399.741852 673.201782,425.816071 689.829285,451.954224 
	C690.769592,453.432343 692.191772,454.814667 691.628906,457.302185 
	C685.688965,457.853882 680.177917,456.243225 675.024902,453.504547 
	C667.264099,449.379913 660.661682,443.865082 655.911865,436.326965 
	C652.714661,431.253021 649.456360,426.217621 646.233826,421.159607 
	C645.059387,419.316284 644.657898,417.752319 646.695801,415.947510 
	C649.593811,413.380859 650.019714,410.095001 647.378967,407.101349 
	C644.625488,403.979980 641.360596,402.360138 637.291687,405.569092 
	C635.745544,397.971497 636.012085,390.817169 639.529236,383.990234 
	C635.184143,381.587280 630.967651,380.158051 626.696472,378.857300 
	C625.408813,378.465149 624.037964,377.944000 622.990662,379.150482 
	C621.871521,380.439758 622.868042,381.690643 623.503723,382.792358 
	C627.976868,390.545410 632.501038,398.269012 637.008911,406.002014 
M532.936157,366.592316 
	C538.022522,365.339661 541.345886,361.879364 544.613892,358.033295 
	C532.728210,350.271027 526.360535,350.324799 518.666382,357.903137 
	C523.209167,368.039154 523.209167,368.039154 532.936157,366.592316 
z"/>
<path fill="#E5E9F0" opacity="1.000000" stroke="none" 
	d="
M575.376587,225.543640 
	C586.831970,234.410950 594.766296,245.709152 601.333374,257.963501 
	C619.665283,292.171051 637.787537,326.490906 655.967957,360.779480 
	C656.733337,362.223145 657.716858,363.647766 657.509583,365.433167 
	C656.598389,366.560120 655.404236,366.294464 654.301331,366.022308 
	C615.046448,356.335602 578.362244,341.097137 546.947876,315.038788 
	C530.772400,301.621124 517.717957,285.802673 513.199036,264.472443 
	C509.619995,247.578705 513.020020,232.833755 527.691040,222.434967 
	C540.526001,213.337631 554.221680,214.050354 567.885803,220.833603 
	C570.408569,222.085953 572.692566,223.819427 575.376587,225.543640 
z"/>
<path fill="#A3BE8C" opacity="1.000000" stroke="none" 
	d="
M343.884094,287.815552 
	C360.237335,293.630341 367.734680,303.378601 368.345490,318.593842 
	C368.519867,322.937988 367.269073,324.752380 362.757416,324.242401 
	C343.317657,322.045044 333.212036,307.917786 333.150513,290.274872 
	C333.141571,287.709717 334.191193,286.103455 337.119934,286.626556 
	C339.241638,287.005493 341.367004,287.364166 343.884094,287.815552 
z"/>
<path fill="#A3BE8C" opacity="1.000000" stroke="none" 
	d="
M425.479126,265.225616 
	C421.548767,274.381256 413.931274,278.643829 405.693390,282.143433 
	C402.580200,283.465973 400.746307,282.424896 399.837677,279.086517 
	C395.282501,262.350922 405.451630,244.776001 422.338135,240.161682 
	C425.531830,239.288986 426.907166,240.279022 427.526184,243.434372 
	C428.969696,250.792511 428.743530,257.945618 425.479126,265.225616 
z"/>
<path fill="#A3BE8C" opacity="1.000000" stroke="none" 
	d="
M430.410034,416.168030 
	C428.352234,404.717590 432.204773,395.826172 440.552979,388.763184 
	C444.293854,385.598267 446.068512,386.147858 448.153107,390.501984 
	C454.042755,402.803680 450.227173,416.119598 438.807159,424.330994 
	C435.226959,426.905273 433.524231,426.009338 432.335968,422.270966 
	C431.733246,420.374695 431.125488,418.480011 430.410034,416.168030 
z"/>
<path fill="#A3BE8C" opacity="1.000000" stroke="none" 
	d="
M395.592224,360.197510 
	C407.780853,357.536499 417.206177,361.020477 424.196014,370.994995 
	C426.160492,373.798279 425.938568,375.542267 422.772614,377.281281 
	C411.092865,383.696716 394.800415,378.856567 388.585327,367.042114 
	C387.380920,364.752625 387.788269,363.229187 390.069611,362.233063 
	C391.738647,361.504333 393.485901,360.954590 395.592224,360.197510 
z"/>
<path fill="#A3BE8C" opacity="1.000000" stroke="none" 
	d="
M360.034546,239.634888 
	C369.715057,243.499969 374.292145,250.678925 375.331451,260.388947 
	C375.645874,263.326630 374.914124,265.143158 371.274445,264.886749 
	C358.252411,263.969299 349.477875,256.317749 347.216278,243.629181 
	C346.260864,238.268967 347.088104,237.217407 352.414764,237.783463 
	C354.862518,238.043579 357.244598,238.921722 360.034546,239.634888 
z"/>
<path fill="#E5E9F0" opacity="1.000000" stroke="none" 
	d="
M490.790955,154.391663 
	C493.133881,148.223526 496.919342,145.833786 502.193939,146.807358 
	C506.374115,147.578934 509.934753,151.661728 510.111023,155.885422 
	C510.298706,160.382523 506.676178,164.990479 502.170471,166.034485 
	C496.168396,167.425232 489.325378,162.083878 490.790955,154.391663 
M504.217316,151.756012 
	C502.338562,150.286102 501.169556,151.114288 500.595917,153.040329 
	C500.262329,154.160400 501.137543,155.044708 502.105042,155.210419 
	C504.407074,155.604675 504.967377,154.277344 504.217316,151.756012 
z"/>
<path fill="#A3BE8C" opacity="1.000000" stroke="none" 
	d="
M440.150269,308.533508 
	C444.810638,310.956818 447.824402,314.312561 448.984406,319.105621 
	C449.591217,321.613007 449.116730,323.341522 445.846832,323.011658 
	C438.284058,322.248779 432.064606,315.467957 431.878357,307.384125 
	C434.706329,305.959625 437.219269,307.506012 440.150269,308.533508 
z"/>
<path fill="#A3BE8C" opacity="1.000000" stroke="none" 
	d="
M518.678711,437.657471 
	C517.765869,438.426605 517.155029,438.999390 516.457947,439.433655 
	C514.402466,440.714081 512.134766,443.227692 509.860535,441.599976 
	C507.476532,439.893646 508.699646,436.756775 509.424103,434.247986 
	C510.911896,429.095306 514.540527,425.865265 519.301208,423.818909 
	C521.976196,422.669098 523.376221,423.596832 523.321594,426.637268 
	C523.246643,430.810364 521.721497,434.348450 518.678711,437.657471 
z"/>
<path fill="#A3BE8C" opacity="1.000000" stroke="none" 
	d="
M507.029114,412.322388 
	C503.696960,411.311737 501.272400,409.599701 499.384735,407.193298 
	C497.653015,404.985687 498.363800,403.401642 501.000671,402.921448 
	C505.640137,402.076691 509.950256,402.999573 513.623535,406.072418 
	C515.134583,407.336548 516.998413,408.772308 516.103943,411.040802 
	C515.322205,413.023254 513.117554,412.911163 511.337158,412.968689 
	C510.036621,413.010712 508.722015,412.615204 507.029114,412.322388 
z"/>
<path fill="#A3BE8C" opacity="1.000000" stroke="none" 
	d="
M466.312988,307.486298 
	C468.787079,305.961670 469.903625,306.962280 470.684692,309.050659 
	C472.305176,313.383270 469.766998,320.789551 465.844452,323.221588 
	C463.285156,324.808411 462.226135,323.589935 461.680695,321.202209 
	C460.456055,315.841431 462.268738,311.453003 466.312988,307.486298 
z"/>
<path fill="#A3BE8C" opacity="1.000000" stroke="none" 
	d="
M436.548401,292.112396 
	C437.212524,289.050140 438.906311,290.072540 440.413452,290.704987 
	C445.470490,292.827118 447.680084,297.081787 446.902344,303.097870 
	C440.787323,303.001617 437.558685,299.696930 436.548401,292.112396 
z"/>
<path d="M519 115 C535 109 553 106 569 103 C566 113 561 121 559 128 C567 125 574 123 579 125 C577 139 571 151 567 159 C560 149 553 140 545 134 C535 128 526 122 519 115 Z" fill="#BF616A"/>
<circle cx="500" cy="156" r="6.2" fill="#2E3440"/>
</svg>
